<svg xmlns="http://www.w3.org/2000/svg" xmlns:xlink="http://www.w3.org/1999/xlink" width="500" zoomAndPan="magnify" viewBox="0 0 375 374.999991" height="500" preserveAspectRatio="xMidYMid meet" version="1.0"><defs><clipPath id="82e79e37a6"><path d="M 0 0 L 375 0 L 375 375 L 0 375 Z M 0 0 " clip-rule="nonzero"/></clipPath><clipPath id="8b74e9a0f8"><rect x="0" width="375" y="0" height="375"/></clipPath></defs><g transform="matrix(1, 0, 0, 1, 0, 0)"><g clip-path="url(#8b74e9a0f8)"><g clip-path="url(#82e79e37a6)"><rect x="-82.5" width="540" fill="#ffffff" height="539.999987" y="-82.499998" fill-opacity="1"/></g><path stroke-linecap="butt" transform="matrix(10.135135, 0, 0, 10.135135, 0.0000045, 0)" fill-opacity="1" fill="#ffffff" fill-rule="nonzero" stroke-linejoin="miter" d="M 1.999927 2.499812 L 8.999864 2.499812 M 10.00002 2.499812 L 13.999874 2.499812 M 16.000187 2.499812 L 16.999958 2.499812 M 20.000041 2.499812 L 20.999812 2.499812 M 23.000124 2.499812 L 25.000051 2.499812 M 28.000135 2.499812 L 35.000072 2.499812 M 1.999927 3.499969 L 3.000083 3.499969 M 8.000093 3.499969 L 8.999864 3.499969 M 10.00002 3.499969 L 11.000177 3.499969 M 11.999947 3.499969 L 13.999874 3.499969 M 18.000114 3.499969 L 20.000041 3.499969 M 20.999812 3.499969 L 21.999968 3.499969 M 23.999895 3.499969 L 25.000051 3.499969 M 28.000135 3.499969 L 28.999905 3.499969 M 33.999916 3.499969 L 35.000072 3.499969 M 1.999927 4.500125 L 3.000083 4.500125 M 3.999854 4.500125 L 6.999937 4.500125 M 8.000093 4.500125 L 8.999864 4.500125 M 10.00002 4.500125 L 11.000177 4.500125 M 13.000104 4.500125 L 13.999874 4.500125 M 16.999958 4.500125 L 18.000114 4.500125 M 18.999885 4.500125 L 20.999812 4.500125 M 23.000124 4.500125 L 25.000051 4.500125 M 25.999822 4.500125 L 26.999978 4.500125 M 28.000135 4.500125 L 28.999905 4.500125 M 30.000062 4.500125 L 33.000145 4.500125 M 33.999916 4.500125 L 35.000072 4.500125 M 1.999927 5.499896 L 3.000083 5.499896 M 3.999854 5.499896 L 6.999937 5.499896 M 8.000093 5.499896 L 8.999864 5.499896 M 11.999947 5.499896 L 13.999874 5.499896 M 21.999968 5.499896 L 23.999895 5.499896 M 25.000051 5.499896 L 26.999978 5.499896 M 28.000135 5.499896 L 28.999905 5.499896 M 30.000062 5.499896 L 33.000145 5.499896 M 33.999916 5.499896 L 35.000072 5.499896 M 1.999927 6.500052 L 3.000083 6.500052 M 3.999854 6.500052 L 6.999937 6.500052 M 8.000093 6.500052 L 8.999864 6.500052 M 10.00002 6.500052 L 11.000177 6.500052 M 13.000104 6.500052 L 13.999874 6.500052 M 16.000187 6.500052 L 18.000114 6.500052 M 18.999885 6.500052 L 20.999812 6.500052 M 21.999968 6.500052 L 23.999895 6.500052 M 28.000135 6.500052 L 28.999905 6.500052 M 30.000062 6.500052 L 33.000145 6.500052 M 33.999916 6.500052 L 35.000072 6.500052 M 1.999927 7.499823 L 3.000083 7.499823 M 8.000093 7.499823 L 8.999864 7.499823 M 11.000177 7.499823 L 13.000104 7.499823 M 13.999874 7.499823 L 16.000187 7.499823 M 18.999885 7.499823 L 20.000041 7.499823 M 23.999895 7.499823 L 26.999978 7.499823 M 28.000135 7.499823 L 28.999905 7.499823 M 33.999916 7.499823 L 35.000072 7.499823 M 1.999927 8.499979 L 8.999864 8.499979 M 10.00002 8.499979 L 11.000177 8.499979 M 11.999947 8.499979 L 13.000104 8.499979 M 13.999874 8.499979 L 15.000031 8.499979 M 16.000187 8.499979 L 16.999958 8.499979 M 18.000114 8.499979 L 18.999885 8.499979 M 20.000041 8.499979 L 20.999812 8.499979 M 21.999968 8.499979 L 23.000124 8.499979 M 23.999895 8.499979 L 25.000051 8.499979 M 25.999822 8.499979 L 26.999978 8.499979 M 28.000135 8.499979 L 35.000072 8.499979 M 13.000104 9.500135 L 13.999874 9.500135 M 15.000031 9.500135 L 16.999958 9.500135 M 20.999812 9.500135 L 21.999968 9.500135 M 23.999895 9.500135 L 25.999822 9.500135 M 1.999927 10.499906 L 3.000083 10.499906 M 5.00001 10.499906 L 11.000177 10.499906 M 13.999874 10.499906 L 15.000031 10.499906 M 16.999958 10.499906 L 18.000114 10.499906 M 18.999885 10.499906 L 20.000041 10.499906 M 21.999968 10.499906 L 23.000124 10.499906 M 25.000051 10.499906 L 28.000135 10.499906 M 30.000062 10.499906 L 30.999833 10.499906 M 31.999989 10.499906 L 35.000072 10.499906 M 1.999927 11.500062 L 5.00001 11.500062 M 6.999937 11.500062 L 8.000093 11.500062 M 8.999864 11.500062 L 11.000177 11.500062 M 13.999874 11.500062 L 15.000031 11.500062 M 16.000187 11.500062 L 18.000114 11.500062 M 20.999812 11.500062 L 21.999968 11.500062 M 23.999895 11.500062 L 25.999822 11.500062 M 30.000062 11.500062 L 33.000145 11.500062 M 3.000083 12.499833 L 3.999854 12.499833 M 6.000166 12.499833 L 8.999864 12.499833 M 13.000104 12.499833 L 13.999874 12.499833 M 16.000187 12.499833 L 18.000114 12.499833 M 18.999885 12.499833 L 20.999812 12.499833 M 23.000124 12.499833 L 26.999978 12.499833 M 30.000062 12.499833 L 33.000145 12.499833 M 33.999916 12.499833 L 35.000072 12.499833 M 3.999854 13.499989 L 6.000166 13.499989 M 6.999937 13.499989 L 8.000093 13.499989 M 10.00002 13.499989 L 11.000177 13.499989 M 11.999947 13.499989 L 15.000031 13.499989 M 16.000187 13.499989 L 16.999958 13.499989 M 18.000114 13.499989 L 20.000041 13.499989 M 25.999822 13.499989 L 28.000135 13.499989 M 28.999905 13.499989 L 30.000062 13.499989 M 31.999989 13.499989 L 35.000072 13.499989 M 3.000083 14.500146 L 5.00001 14.500146 M 6.000166 14.500146 L 10.00002 14.500146 M 15.000031 14.500146 L 16.999958 14.500146 M 18.000114 14.500146 L 20.999812 14.500146 M 21.999968 14.500146 L 23.000124 14.500146 M 25.000051 14.500146 L 26.999978 14.500146 M 28.000135 14.500146 L 30.000062 14.500146 M 3.999854 15.499916 L 6.999937 15.499916 M 8.999864 15.499916 L 10.00002 15.499916 M 11.000177 15.499916 L 13.999874 15.499916 M 15.000031 15.499916 L 16.000187 15.499916 M 18.000114 15.499916 L 18.999885 15.499916 M 23.000124 15.499916 L 25.999822 15.499916 M 28.999905 15.499916 L 30.000062 15.499916 M 30.999833 15.499916 L 31.999989 15.499916 M 1.999927 16.500073 L 3.000083 16.500073 M 3.999854 16.500073 L 6.000166 16.500073 M 8.000093 16.500073 L 10.00002 16.500073 M 11.000177 16.500073 L 11.999947 16.500073 M 13.999874 16.500073 L 16.999958 16.500073 M 18.000114 16.500073 L 18.999885 16.500073 M 20.999812 16.500073 L 23.000124 16.500073 M 28.000135 16.500073 L 28.999905 16.500073 M 30.999833 16.500073 L 31.999989 16.500073 M 1.999927 17.499844 L 3.999854 17.499844 M 6.000166 17.499844 L 6.999937 17.499844 M 10.00002 17.499844 L 11.999947 17.499844 M 13.000104 17.499844 L 13.999874 17.499844 M 15.000031 17.499844 L 16.000187 17.499844 M 16.999958 17.499844 L 18.000114 17.499844 M 20.000041 17.499844 L 20.999812 17.499844 M 23.999895 17.499844 L 25.000051 17.499844 M 25.999822 17.499844 L 28.000135 17.499844 M 30.000062 17.499844 L 33.000145 17.499844 M 33.999916 17.499844 L 35.000072 17.499844 M 1.999927 18.5 L 6.999937 18.5 M 8.000093 18.5 L 8.999864 18.5 M 10.00002 18.5 L 11.000177 18.5 M 11.999947 18.5 L 13.999874 18.5 M 16.000187 18.5 L 16.999958 18.5 M 20.000041 18.5 L 23.000124 18.5 M 26.999978 18.5 L 31.999989 18.5 M 1.999927 19.500156 L 3.000083 19.500156 M 5.00001 19.500156 L 8.000093 19.500156 M 8.999864 19.500156 L 11.000177 19.500156 M 13.999874 19.500156 L 15.000031 19.500156 M 16.000187 19.500156 L 18.000114 19.500156 M 20.000041 19.500156 L 25.000051 19.500156 M 28.000135 19.500156 L 28.999905 19.500156 M 30.000062 19.500156 L 30.999833 19.500156 M 31.999989 19.500156 L 33.000145 19.500156 M 33.999916 19.500156 L 35.000072 19.500156 M 3.000083 20.499927 L 5.00001 20.499927 M 6.000166 20.499927 L 10.00002 20.499927 M 11.000177 20.499927 L 16.000187 20.499927 M 16.999958 20.499927 L 18.999885 20.499927 M 20.999812 20.499927 L 21.999968 20.499927 M 23.000124 20.499927 L 25.999822 20.499927 M 28.000135 20.499927 L 30.000062 20.499927 M 30.999833 20.499927 L 33.000145 20.499927 M 33.999916 20.499927 L 35.000072 20.499927 M 1.999927 21.500083 L 3.000083 21.500083 M 3.999854 21.500083 L 6.000166 21.500083 M 6.999937 21.500083 L 8.000093 21.500083 M 10.00002 21.500083 L 11.000177 21.500083 M 11.999947 21.500083 L 13.000104 21.500083 M 15.000031 21.500083 L 16.999958 21.500083 M 18.000114 21.500083 L 20.999812 21.500083 M 25.000051 21.500083 L 25.999822 21.500083 M 26.999978 21.500083 L 28.999905 21.500083 M 30.000062 21.500083 L 33.000145 21.500083 M 33.999916 21.500083 L 35.000072 21.500083 M 1.999927 22.499854 L 6.000166 22.499854 M 6.999937 22.499854 L 8.999864 22.499854 M 13.000104 22.499854 L 13.999874 22.499854 M 16.000187 22.499854 L 18.000114 22.499854 M 23.999895 22.499854 L 26.999978 22.499854 M 30.999833 22.499854 L 31.999989 22.499854 M 33.000145 22.499854 L 35.000072 22.499854 M 1.999927 23.50001 L 3.000083 23.50001 M 3.999854 23.50001 L 6.000166 23.50001 M 11.999947 23.50001 L 13.000104 23.50001 M 13.999874 23.50001 L 15.000031 23.50001 M 18.000114 23.50001 L 21.999968 23.50001 M 23.000124 23.50001 L 25.999822 23.50001 M 28.999905 23.50001 L 30.999833 23.50001 M 1.999927 24.500166 L 3.000083 24.500166 M 3.999854 24.500166 L 5.00001 24.500166 M 6.000166 24.500166 L 10.00002 24.500166 M 11.000177 24.500166 L 11.999947 24.500166 M 13.000104 24.500166 L 18.999885 24.500166 M 21.999968 24.500166 L 25.999822 24.500166 M 26.999978 24.500166 L 28.999905 24.500166 M 30.999833 24.500166 L 31.999989 24.500166 M 33.000145 24.500166 L 35.000072 24.500166 M 1.999927 25.499937 L 3.000083 25.499937 M 8.999864 25.499937 L 10.00002 25.499937 M 11.000177 25.499937 L 13.000104 25.499937 M 13.999874 25.499937 L 15.000031 25.499937 M 18.000114 25.499937 L 20.999812 25.499937 M 21.999968 25.499937 L 23.000124 25.499937 M 28.000135 25.499937 L 30.999833 25.499937 M 31.999989 25.499937 L 33.000145 25.499937 M 1.999927 26.500093 L 3.999854 26.500093 M 5.00001 26.500093 L 6.000166 26.500093 M 8.000093 26.500093 L 11.000177 26.500093 M 11.999947 26.500093 L 13.000104 26.500093 M 13.999874 26.500093 L 15.000031 26.500093 M 16.000187 26.500093 L 18.000114 26.500093 M 20.999812 26.500093 L 23.000124 26.500093 M 25.999822 26.500093 L 31.999989 26.500093 M 33.999916 26.500093 L 35.000072 26.500093 M 10.00002 27.499864 L 11.999947 27.499864 M 15.000031 27.499864 L 16.000187 27.499864 M 16.999958 27.499864 L 18.999885 27.499864 M 20.000041 27.499864 L 20.999812 27.499864 M 23.000124 27.499864 L 23.999895 27.499864 M 25.999822 27.499864 L 26.999978 27.499864 M 30.000062 27.499864 L 30.999833 27.499864 M 31.999989 27.499864 L 33.999916 27.499864 M 1.999927 28.50002 L 8.999864 28.50002 M 10.00002 28.50002 L 11.000177 28.50002 M 13.000104 28.50002 L 18.000114 28.50002 M 20.000041 28.50002 L 21.999968 28.50002 M 25.000051 28.50002 L 26.999978 28.50002 M 28.000135 28.50002 L 28.999905 28.50002 M 30.000062 28.50002 L 30.999833 28.50002 M 31.999989 28.50002 L 33.000145 28.50002 M 1.999927 29.500177 L 3.000083 29.500177 M 8.000093 29.500177 L 8.999864 29.500177 M 10.00002 29.500177 L 11.000177 29.500177 M 13.000104 29.500177 L 13.999874 29.500177 M 18.000114 29.500177 L 18.999885 29.500177 M 20.999812 29.500177 L 23.000124 29.500177 M 23.999895 29.500177 L 26.999978 29.500177 M 30.000062 29.500177 L 33.000145 29.500177 M 1.999927 30.499948 L 3.000083 30.499948 M 3.999854 30.499948 L 6.999937 30.499948 M 8.000093 30.499948 L 8.999864 30.499948 M 10.00002 30.499948 L 11.000177 30.499948 M 11.999947 30.499948 L 13.000104 30.499948 M 13.999874 30.499948 L 16.000187 30.499948 M 18.999885 30.499948 L 20.999812 30.499948 M 23.999895 30.499948 L 30.999833 30.499948 M 33.000145 30.499948 L 33.999916 30.499948 M 1.999927 31.500104 L 3.000083 31.500104 M 3.999854 31.500104 L 6.999937 31.500104 M 8.000093 31.500104 L 8.999864 31.500104 M 10.00002 31.500104 L 11.999947 31.500104 M 16.000187 31.500104 L 16.999958 31.500104 M 18.999885 31.500104 L 20.000041 31.500104 M 20.999812 31.500104 L 23.000124 31.500104 M 23.999895 31.500104 L 28.000135 31.500104 M 28.999905 31.500104 L 30.000062 31.500104 M 31.999989 31.500104 L 35.000072 31.500104 M 1.999927 32.499875 L 3.000083 32.499875 M 3.999854 32.499875 L 6.999937 32.499875 M 8.000093 32.499875 L 8.999864 32.499875 M 11.000177 32.499875 L 13.000104 32.499875 M 18.000114 32.499875 L 18.999885 32.499875 M 20.999812 32.499875 L 23.000124 32.499875 M 23.999895 32.499875 L 25.000051 32.499875 M 26.999978 32.499875 L 28.000135 32.499875 M 28.999905 32.499875 L 30.999833 32.499875 M 31.999989 32.499875 L 35.000072 32.499875 M 1.999927 33.500031 L 3.000083 33.500031 M 8.000093 33.500031 L 8.999864 33.500031 M 11.000177 33.500031 L 11.999947 33.500031 M 13.000104 33.500031 L 13.999874 33.500031 M 15.000031 33.500031 L 16.000187 33.500031 M 16.999958 33.500031 L 18.999885 33.500031 M 20.999812 33.500031 L 23.000124 33.500031 M 23.999895 33.500031 L 25.000051 33.500031 M 28.000135 33.500031 L 35.000072 33.500031 M 1.999927 34.500187 L 8.999864 34.500187 M 10.00002 34.500187 L 13.999874 34.500187 M 18.000114 34.500187 L 20.000041 34.500187 M 21.999968 34.500187 L 23.000124 34.500187 M 25.999822 34.500187 L 26.999978 34.500187 M 28.999905 34.500187 L 31.999989 34.500187 " stroke="#00d0c6" stroke-width="1" stroke-opacity="1" stroke-miterlimit="4"/></g></g></svg>